<svg id="Group_86" data-name="Group 86" xmlns="http://www.w3.org/2000/svg" width="325.062" height="75.366" viewBox="0 0 325.062 75.366">
  <path id="Subtraction_1" data-name="Subtraction 1" d="M46.886,60.565H9.96A9.96,9.96,0,0,1,0,50.785L32.3,17.107l7.037,28.4H58.758L57.152,51.3C55.3,57.793,52.226,60.565,46.886,60.565ZM0,50.784v-.006c0-.058,0-.115,0-.173L11.367,9.22C12.9,2.757,16,0,21.731,0H58.659a9.97,9.97,0,0,1,9.959,9.959L60.988,37.466H45.113L35.562,2.277.005,50.78Z" transform="translate(0 14.801)" fill="#005aaa"/>
  <path id="Path_150" data-name="Path 150" d="M699.621,96.341l4.805-9.61v9.61H708.2l-3.775,3.89v6.521l-3.661-5.606-5.377,4.233,3.089-5.72-3.089-2.631Z" transform="translate(-675.314 -42.804)" fill="#f5831f"/>
  <path id="Union_1" data-name="Union 1" d="M98.85,37.141,108.231.988h12.355l-2.4,8.581H128.6a6.5,6.5,0,0,1,4.263,2.513c1.811,2.362,2.264,6,1.344,10.8-1.257,6.571-3.929,10.1-5.946,11.9a10.023,10.023,0,0,1-4.122,2.362Zm13.755-7.207h6.072a.864.864,0,0,0,.144.01c.727,0,3.2-.539,4.5-7.461.614-3.273.44-5.515-.515-6.666a2.022,2.022,0,0,0-1.571-.769,1.089,1.089,0,0,0-.181.012h-4.4ZM81.228,37.139S84.317,25.928,85.119,22.5s.687-7.665-2.974-7.55-4.805,7.55-4.805,7.55L74.478,37.139H62.238S64.412,28.33,65.669,22.5s0-7.435-2.974-7.55-4,4.919-4,4.919L54.916,37.139H42.788L49.31,9.225H60.521v1.75a22.872,22.872,0,0,1,6.693-1.75c4.313-.562,9.519,1.75,9.519,1.75S81.2,7.256,91.309,9.225,97.554,22.5,97.554,22.5L93.688,37.139Zm55.6-.228L143.812,9.34H155.6l-6.979,27.572ZM12.7,36.684l-12.7,0L13.272,9H25.855l-9-9H38.212V36.68l-12.357,0v-9.5h-9l-4.16,9.5v0Zm7.666-15.333H26.2V10.827ZM144.1,7.143,145.745.988h11.783l-1.645,6.155Z" transform="translate(68.812 15.711)" fill="#005aaa"/>
  <path id="Union_2" data-name="Union 2" d="M55.476,46.1s2.012-2.567,7.437-9.22L61.426,8.272H72.431v9.576l7.585-9.576h12.79L70.348,46.1Zm7.435-9.211Zm0,0v0Zm0-.007Zm0,0,0-.027Zm0-.029,0-.012Zm0-.024h0Zm0-.007v0Zm0-.012v0Zm0,0v0Zm0,0h0Zm-26.031-.457L45.507.416H57.29l-8.613,35.93ZM12.343,36.29H0L6.842,8.774H17.55L8.774,0H30.043a10.574,10.574,0,0,1,3.532,2.51,12.773,12.773,0,0,1,3.31,9.538,10.21,10.21,0,0,1-4.574,8.719,11.451,11.451,0,0,1-4.35,1.692H15.616l-3.271,13.83v0ZM20.377,8.774l-1.339,6.4h4.611c.021-.009,2.23-.922,2.082-4.609-.059-1.5-.977-2.289-2.656-2.289A9.112,9.112,0,0,0,20.377,8.774Z" transform="translate(232.256 16.275)" fill="#f58320"/>
  <text id="TM" transform="translate(69.562 9)" font-size="10" font-family="Arial-BoldItalicMT, Arial" font-weight="700" font-style="italic"><tspan x="0" y="0">TM</tspan></text>
  <text id="the_toughest" data-name="the toughest" transform="translate(65.215 70.519)" font-size="15" font-family="Arial-ItalicMT, Arial" font-style="italic"><tspan x="0" y="0">the toughest</tspan></text>
</svg>
