<svg xmlns="http://www.w3.org/2000/svg" width="43" height="43" viewBox="0 0 43 43">
  <g id="Group_6" data-name="Group 6" transform="translate(0.454 -0.473)">
    <path id="Exclusion_1" data-name="Exclusion 1" d="M21.5,43A21.506,21.506,0,0,1,13.131,1.69,21.506,21.506,0,0,1,29.868,41.31,21.365,21.365,0,0,1,21.5,43Zm0-41.314A19.814,19.814,0,1,0,41.313,21.5,19.836,19.836,0,0,0,21.5,1.686Z" transform="translate(-0.454 0.473)" fill="#f8f8f8"/>
    <g id="Layer_x0020_1" transform="translate(11.938 11.938)">
      <g id="_2753994229744" transform="translate(0)">
        <path id="Path_1" data-name="Path 1" d="M19.587,19.952c-.291,3.069,2.174,5.718,4.611,6.77,4.3,1.857,1.1-4.23,7.449.193.881.614,2.5,1.419,1.964,3.147a5.191,5.191,0,0,1-2.855,2.68c-4.121,1.263-14.868-8.232-16.848-15.164-.888-3.107,2.48-6.261,4.817-3.869.043.044.1.112.147.157,4.278,4.564,1.848,5.166.715,6.086Z" transform="translate(-13.762 -12.868)" fill="#f8f8f8"/>
      </g>
    </g>
  </g>
</svg>
